<?xml version="1.0" encoding="UTF-8" standalone="no"?>
<!-- Created with Inkscape (http://www.inkscape.org/) -->

<svg
   xmlns:dc="http://purl.org/dc/elements/1.1/"
   xmlns:cc="http://creativecommons.org/ns#"
   xmlns:rdf="http://www.w3.org/1999/02/22-rdf-syntax-ns#"
   xmlns:svg="http://www.w3.org/2000/svg"
   xmlns="http://www.w3.org/2000/svg"
   xmlns:xlink="http://www.w3.org/1999/xlink"
   xmlns:sodipodi="http://sodipodi.sourceforge.net/DTD/sodipodi-0.dtd"
   xmlns:inkscape="http://www.inkscape.org/namespaces/inkscape"
   width="240mm"
   height="80mm"
   viewBox="0 0 240 80"
   version="1.1"
   id="svg8"
   inkscape:version="0.92.4 (5da689c313, 2019-01-14)"
   sodipodi:docname="intramolecular_forces.svg">
  <defs
     id="defs2">
    <marker
       inkscape:isstock="true"
       style="overflow:visible"
       id="marker1817"
       refX="0"
       refY="0"
       orient="auto"
       inkscape:stockid="TriangleOutS">
      <path
         transform="scale(0.2)"
         style="fill:#000000;fill-opacity:1;fill-rule:evenodd;stroke:#000000;stroke-width:1.00000003pt;stroke-opacity:1"
         d="M 5.77,0 -2.88,5 V -5 Z"
         id="path1815"
         inkscape:connector-curvature="0" />
    </marker>
    <marker
       inkscape:stockid="TriangleOutS"
       orient="auto"
       refY="0"
       refX="0"
       id="TriangleOutS"
       style="overflow:visible"
       inkscape:isstock="true"
       inkscape:collect="always">
      <path
         id="path1033"
         d="M 5.77,0 -2.88,5 V -5 Z"
         style="fill:#000000;fill-opacity:1;fill-rule:evenodd;stroke:#000000;stroke-width:1.00000003pt;stroke-opacity:1"
         transform="scale(0.2)"
         inkscape:connector-curvature="0" />
    </marker>
    <marker
       inkscape:stockid="TriangleInS"
       orient="auto"
       refY="0"
       refX="0"
       id="TriangleInS"
       style="overflow:visible"
       inkscape:isstock="true">
      <path
         id="path1024"
         d="M 5.77,0 -2.88,5 V -5 Z"
         style="fill:#000000;fill-opacity:1;fill-rule:evenodd;stroke:#000000;stroke-width:1.00000003pt;stroke-opacity:1"
         transform="scale(-0.2)"
         inkscape:connector-curvature="0" />
    </marker>
    <marker
       inkscape:stockid="Arrow2Sstart"
       orient="auto"
       refY="0"
       refX="0"
       id="Arrow2Sstart"
       style="overflow:visible"
       inkscape:isstock="true">
      <path
         id="path915"
         style="fill:#000000;fill-opacity:1;fill-rule:evenodd;stroke:#000000;stroke-width:0.625;stroke-linejoin:round;stroke-opacity:1"
         d="M 8.7185878,4.0337352 -2.2072895,0.01601326 8.7185884,-4.0017078 c -1.7454984,2.3720609 -1.7354408,5.6174519 -6e-7,8.035443 z"
         transform="matrix(0.3,0,0,0.3,-0.69,0)"
         inkscape:connector-curvature="0" />
    </marker>
    <linearGradient
       inkscape:collect="always"
       id="linearGradient843">
      <stop
         style="stop-color:#404040;stop-opacity:1"
         offset="0"
         id="stop839" />
      <stop
         style="stop-color:#000000;stop-opacity:1"
         offset="1"
         id="stop841" />
    </linearGradient>
    <radialGradient
       inkscape:collect="always"
       xlink:href="#linearGradient843"
       id="radialGradient845"
       cx="32.505951"
       cy="79.285713"
       fx="32.505951"
       fy="79.285713"
       r="15.975"
       gradientUnits="userSpaceOnUse"
       gradientTransform="matrix(0.38482748,0,0,0.38482748,-3.5183422,226.16863)" />
    <radialGradient
       inkscape:collect="always"
       xlink:href="#linearGradient843"
       id="radialGradient853"
       gradientUnits="userSpaceOnUse"
       gradientTransform="matrix(0.38482748,0,0,0.38482748,28.987611,226.16864)"
       cx="32.505951"
       cy="79.285713"
       fx="32.505951"
       fy="79.285713"
       r="15.975" />
    <radialGradient
       inkscape:collect="always"
       xlink:href="#linearGradient843"
       id="radialGradient857"
       gradientUnits="userSpaceOnUse"
       gradientTransform="matrix(0.38482748,0,0,0.38482748,67.82265,209.30284)"
       cx="32.505951"
       cy="79.285713"
       fx="32.505951"
       fy="79.285713"
       r="15.975" />
    <radialGradient
       inkscape:collect="always"
       xlink:href="#linearGradient843"
       id="radialGradient861"
       gradientUnits="userSpaceOnUse"
       gradientTransform="matrix(0.38482748,0,0,0.38482748,88.233357,233.30432)"
       cx="32.505951"
       cy="79.285713"
       fx="32.505951"
       fy="79.285713"
       r="15.975" />
    <radialGradient
       inkscape:collect="always"
       xlink:href="#linearGradient843"
       id="radialGradient865"
       gradientUnits="userSpaceOnUse"
       gradientTransform="matrix(0.38482748,0,0,0.38482748,108.64412,209.30282)"
       cx="32.505951"
       cy="79.285713"
       fx="32.505951"
       fy="79.285713"
       r="15.975" />
    <radialGradient
       inkscape:collect="always"
       xlink:href="#linearGradient843"
       id="radialGradient869"
       gradientUnits="userSpaceOnUse"
       gradientTransform="matrix(0.38482748,0,0,0.38482748,140.0106,209.44875)"
       cx="32.505951"
       cy="79.285713"
       fx="32.505951"
       fy="79.285713"
       r="15.975" />
    <radialGradient
       inkscape:collect="always"
       xlink:href="#linearGradient843"
       id="radialGradient873"
       gradientUnits="userSpaceOnUse"
       gradientTransform="matrix(0.38482748,0,0,0.38482748,160.48431,232.69429)"
       cx="32.505951"
       cy="79.285713"
       fx="32.505951"
       fy="79.285713"
       r="15.975" />
    <radialGradient
       inkscape:collect="always"
       xlink:href="#linearGradient843"
       id="radialGradient877"
       gradientUnits="userSpaceOnUse"
       gradientTransform="matrix(0.38482748,0,0,0.38482748,195.24561,232.69429)"
       cx="32.505951"
       cy="79.285713"
       fx="32.505951"
       fy="79.285713"
       r="15.975" />
    <radialGradient
       inkscape:collect="always"
       xlink:href="#linearGradient843"
       id="radialGradient881"
       gradientUnits="userSpaceOnUse"
       gradientTransform="matrix(0.38482748,0,0,0.38482748,215.71932,209.44876)"
       cx="32.505951"
       cy="79.285713"
       fx="32.505951"
       fy="79.285713"
       r="15.975" />
  </defs>
  <sodipodi:namedview
     id="base"
     pagecolor="#ffffff"
     bordercolor="#666666"
     borderopacity="1.0"
     inkscape:pageopacity="0.0"
     inkscape:pageshadow="2"
     inkscape:zoom="0.98994949"
     inkscape:cx="525.17101"
     inkscape:cy="152.78967"
     inkscape:document-units="mm"
     inkscape:current-layer="layer1"
     showgrid="false"
     inkscape:window-width="1920"
     inkscape:window-height="1171"
     inkscape:window-x="1920"
     inkscape:window-y="432"
     inkscape:window-maximized="1" />
  <metadata
     id="metadata5">
    <rdf:RDF>
      <cc:Work
         rdf:about="">
        <dc:format>image/svg+xml</dc:format>
        <dc:type
           rdf:resource="http://purl.org/dc/dcmitype/StillImage" />
        <dc:title></dc:title>
      </cc:Work>
    </rdf:RDF>
  </metadata>
  <g
     inkscape:label="Layer 1"
     inkscape:groupmode="layer"
     id="layer1"
     transform="translate(0,-217)">
    <circle
       style="opacity:1;fill:url(#radialGradient845);fill-opacity:1;stroke:#000000;stroke-width:0.0769655;stroke-linecap:round;stroke-linejoin:round;stroke-miterlimit:4;stroke-dasharray:none;stroke-dashoffset:0;stroke-opacity:1;paint-order:stroke markers fill"
       id="path815"
       cx="8.9908419"
       cy="256.67999"
       r="6.1091361" />
    <circle
       r="6.1091361"
       cy="256.67999"
       cx="41.496796"
       id="circle851"
       style="opacity:1;fill:url(#radialGradient853);fill-opacity:1;stroke:#000000;stroke-width:0.0769655;stroke-linecap:round;stroke-linejoin:round;stroke-miterlimit:4;stroke-dasharray:none;stroke-dashoffset:0;stroke-opacity:1;paint-order:stroke markers fill" />
    <circle
       style="opacity:1;fill:url(#radialGradient881);fill-opacity:1;stroke:#000000;stroke-width:0.0769655;stroke-linecap:round;stroke-linejoin:round;stroke-miterlimit:4;stroke-dasharray:none;stroke-dashoffset:0;stroke-opacity:1;paint-order:stroke markers fill"
       id="circle879"
       cx="228.22803"
       cy="239.9601"
       r="6.1091361" />
    <path
       style="fill:none;stroke:#000000;stroke-width:0.76499999;stroke-linecap:butt;stroke-linejoin:miter;stroke-miterlimit:4;stroke-dasharray:none;stroke-opacity:1;marker-start:url(#TriangleInS);marker-end:url(#TriangleOutS)"
       d="M 17.589802,256.9211 H 32.897837"
       id="path883"
       inkscape:connector-curvature="0" />
    <path
       style="fill:none;stroke:#000000;stroke-width:1.26499999;stroke-linecap:butt;stroke-linejoin:miter;stroke-miterlimit:4;stroke-dasharray:none;stroke-opacity:1"
       d="m 80.037226,240.14979 21.261164,24.28497"
       id="path1771"
       inkscape:connector-curvature="0"
       sodipodi:nodetypes="cc" />
    <path
       style="fill:none;stroke:#000000;stroke-width:1.26499999;stroke-linecap:butt;stroke-linejoin:miter;stroke-miterlimit:4;stroke-dasharray:none;stroke-opacity:1"
       d="m 121.52016,239.11035 -20.22177,25.32441"
       id="path1773"
       inkscape:connector-curvature="0" />
    <circle
       style="opacity:1;fill:url(#radialGradient861);fill-opacity:1;stroke:#000000;stroke-width:0.0769655;stroke-linecap:round;stroke-linejoin:round;stroke-miterlimit:4;stroke-dasharray:none;stroke-dashoffset:0;stroke-opacity:1;paint-order:stroke markers fill"
       id="circle859"
       cx="100.74255"
       cy="263.81567"
       r="6.1091361" />
    <circle
       r="6.1091361"
       cy="239.81418"
       cx="80.331833"
       id="circle855"
       style="opacity:1;fill:url(#radialGradient857);fill-opacity:1;stroke:#000000;stroke-width:0.0769655;stroke-linecap:round;stroke-linejoin:round;stroke-miterlimit:4;stroke-dasharray:none;stroke-dashoffset:0;stroke-opacity:1;paint-order:stroke markers fill" />
    <circle
       r="6.1091361"
       cy="239.81418"
       cx="121.15324"
       id="circle863"
       style="opacity:1;fill:url(#radialGradient865);fill-opacity:1;stroke:#000000;stroke-width:0.0769655;stroke-linecap:round;stroke-linejoin:round;stroke-miterlimit:4;stroke-dasharray:none;stroke-dashoffset:0;stroke-opacity:1;paint-order:stroke markers fill" />
    <path
       inkscape:connector-curvature="0"
       id="path1799"
       d="m 152.50866,240.10672 21.16666,23.52902"
       style="fill:none;stroke:#000000;stroke-width:1.26499999;stroke-linecap:butt;stroke-linejoin:miter;stroke-miterlimit:4;stroke-dasharray:none;stroke-opacity:1"
       sodipodi:nodetypes="cc" />
    <circle
       r="6.1091361"
       cy="239.9601"
       cx="152.51959"
       id="circle867"
       style="opacity:1;fill:url(#radialGradient869);fill-opacity:1;stroke:#000000;stroke-width:0.0769655;stroke-linecap:round;stroke-linejoin:round;stroke-miterlimit:4;stroke-dasharray:none;stroke-dashoffset:0;stroke-opacity:1;paint-order:stroke markers fill" />
    <path
       sodipodi:nodetypes="cc"
       style="fill:none;stroke:#000000;stroke-width:1.26499999;stroke-linecap:butt;stroke-linejoin:miter;stroke-miterlimit:4;stroke-dasharray:none;stroke-opacity:1"
       d="m 173.67532,263.63574 31.64861,-0.0886"
       id="path1801"
       inkscape:connector-curvature="0" />
    <circle
       r="6.1091361"
       cy="263.20563"
       cx="207.75432"
       id="circle875"
       style="opacity:1;fill:url(#radialGradient877);fill-opacity:1;stroke:#000000;stroke-width:0.0769655;stroke-linecap:round;stroke-linejoin:round;stroke-miterlimit:4;stroke-dasharray:none;stroke-dashoffset:0;stroke-opacity:1;paint-order:stroke markers fill" />
    <circle
       style="opacity:1;fill:url(#radialGradient873);fill-opacity:1;stroke:#000000;stroke-width:0.0769655;stroke-linecap:round;stroke-linejoin:round;stroke-miterlimit:4;stroke-dasharray:none;stroke-dashoffset:0;stroke-opacity:1;paint-order:stroke markers fill"
       id="circle871"
       cx="172.9933"
       cy="263.20563"
       r="6.1091361" />
    <path
       style="fill:#000000;stroke:#000000;stroke-width:0.26458332px;stroke-linecap:butt;stroke-linejoin:miter;stroke-opacity:1"
       d="m 213.73536,258.87484 8.65137,-14.08747 2.65097,2.14015 z"
       id="path1803"
       inkscape:connector-curvature="0" />
    <path
       style="opacity:1;fill:none;fill-opacity:1;stroke:#000000;stroke-width:0.565;stroke-linecap:round;stroke-linejoin:round;stroke-miterlimit:4;stroke-dasharray:none;stroke-dashoffset:0;stroke-opacity:1;paint-order:stroke markers fill"
       id="path1805"
       sodipodi:type="arc"
       sodipodi:cx="-252.46402"
       sodipodi:cy="-111.74204"
       sodipodi:rx="8.2853556"
       sodipodi:ry="8.2853556"
       sodipodi:start="5.8891158"
       sodipodi:end="2.1092259"
       d="m -244.8137,-114.9232 a 8.2853556,8.2853556 0 0 1 -2.22945,9.44704 8.2853556,8.2853556 0 0 1 -9.6695,0.84722"
       sodipodi:open="true"
       transform="rotate(-135.24616)" />
    <path
       style="opacity:1;fill:none;fill-opacity:1;stroke:#000000;stroke-width:0.56499994;stroke-linecap:round;stroke-linejoin:round;stroke-miterlimit:4;stroke-dasharray:none;stroke-dashoffset:0;stroke-opacity:1;marker-start:url(#Arrow2Sstart);paint-order:stroke markers fill"
       id="path1807"
       sodipodi:type="arc"
       sodipodi:cx="190.39413"
       sodipodi:cy="262.72269"
       sodipodi:rx="4.2094951"
       sodipodi:ry="7.2830944"
       sodipodi:start="3.7357183"
       sodipodi:end="2.1092304"
       sodipodi:open="true"
       d="m 186.90599,258.64572 a 4.2094951,7.2830944 0 0 1 5.7794,-2.03272 4.2094951,7.2830944 0 0 1 1.28196,9.95982 4.2094951,7.2830944 0 0 1 -5.73181,2.4025" />
    <g
       aria-label="Bond stretching"
       transform="matrix(0.26458333,0,0,0.26458333,0,211.38734)"
       style="font-style:normal;font-variant:normal;font-weight:normal;font-stretch:normal;font-size:18.66666603px;line-height:1.25;font-family:Arial;-inkscape-font-specification:Arial;letter-spacing:0px;word-spacing:0px;fill:#000000;fill-opacity:1;stroke:none"
       id="flowRoot1867">
      <path
         d="M 34.703125,236.34338 V 222.9814 h 5.013021 q 1.53125,0 2.451822,0.41016 0.929688,0.40104 1.449219,1.24869 0.528646,0.83855 0.528646,1.75912 0,0.85677 -0.464844,1.61328 -0.464844,0.75651 -1.403646,1.22135 1.21224,0.35547 1.859375,1.21224 0.65625,0.85677 0.65625,2.02344 0,0.9388 -0.401041,1.75 -0.391927,0.80208 -0.975261,1.23958 -0.583333,0.4375 -1.467448,0.66537 -0.875,0.21875 -2.151041,0.21875 z m 1.768229,-7.7474 h 2.889323 q 1.175781,0 1.686198,-0.15494 0.674479,-0.20053 1.011718,-0.66537 0.346355,-0.46484 0.346355,-1.16667 0,-0.66536 -0.319011,-1.16666 -0.31901,-0.51042 -0.911458,-0.69271 -0.592448,-0.19141 -2.032552,-0.19141 h -2.670573 z m 0,6.17058 h 3.326823 q 0.856771,0 1.203125,-0.0638 0.610677,-0.10937 1.020833,-0.36458 0.410156,-0.25521 0.674479,-0.73828 0.264323,-0.49219 0.264323,-1.13021 0,-0.74739 -0.382812,-1.29427 -0.382813,-0.55599 -1.066407,-0.77474 -0.674479,-0.22786 -1.95052,-0.22786 h -3.089844 z"
         style=""
         id="path2410" />
      <path
         d="m 46.424479,231.50354 q 0,-2.68881 1.494792,-3.98308 1.248698,-1.07552 3.04427,-1.07552 1.996094,0 3.263021,1.3125 1.266927,1.30339 1.266927,3.60938 0,1.86849 -0.565104,2.94401 -0.555989,1.0664 -1.63151,1.65885 -1.066406,0.59245 -2.333334,0.59245 -2.032552,0 -3.290364,-1.30339 -1.248698,-1.30338 -1.248698,-3.7552 z m 1.686198,0 q 0,1.85937 0.811198,2.78906 0.811198,0.92057 2.041666,0.92057 1.221355,0 2.032553,-0.92969 0.811197,-0.92968 0.811197,-2.83463 0,-1.79558 -0.820312,-2.71615 -0.811198,-0.92969 -2.023438,-0.92969 -1.230468,0 -2.041666,0.92058 -0.811198,0.92057 -0.811198,2.77995 z"
         style=""
         id="path2412" />
      <path
         d="m 57.425781,236.34338 v -9.67969 h 1.476563 v 1.3763 q 1.066406,-1.59505 3.080729,-1.59505 0.875,0 1.604166,0.31901 0.738282,0.3099 1.102865,0.82031 0.364583,0.51042 0.510417,1.21224 0.09115,0.45573 0.09115,1.59506 v 5.95182 h -1.640625 v -5.88802 q 0,-1.00261 -0.191406,-1.49479 -0.191406,-0.50131 -0.683594,-0.79297 -0.483072,-0.30078 -1.139322,-0.30078 -1.048177,0 -1.813802,0.66536 -0.756511,0.66537 -0.756511,2.52474 v 5.28646 z"
         style=""
         id="path2414" />
      <path
         d="m 74.096354,236.34338 v -1.22136 q -0.920573,1.44011 -2.707031,1.44011 -1.157552,0 -2.132813,-0.63802 -0.966145,-0.63802 -1.503906,-1.77735 -0.528646,-1.14843 -0.528646,-2.63411 0,-1.44922 0.483073,-2.625 0.483073,-1.1849 1.449219,-1.8138 0.966146,-0.62891 2.160156,-0.62891 0.875,0 1.558594,0.3737 0.683594,0.36458 1.111979,0.95703 v -4.79427 h 1.63151 v 13.36198 z m -5.186198,-4.83073 q 0,1.85937 0.783854,2.77995 0.783854,0.92057 1.850261,0.92057 1.07552,0 1.822916,-0.875 0.756511,-0.88411 0.756511,-2.6888 0,-1.98698 -0.765625,-2.91667 -0.765625,-0.92969 -1.886719,-0.92969 -1.09375,0 -1.832031,0.89323 -0.729167,0.89323 -0.729167,2.81641 z"
         style=""
         id="path2416" />
      <path
         d="m 82.727863,233.45406 1.622396,-0.25521 q 0.136719,0.97526 0.75651,1.49479 0.628907,0.51953 1.75,0.51953 1.130209,0 1.677084,-0.45573 0.546875,-0.46484 0.546875,-1.08463 0,-0.55599 -0.483073,-0.875 -0.33724,-0.21875 -1.677084,-0.55599 -1.804687,-0.45573 -2.50651,-0.78386 -0.692708,-0.33724 -1.057291,-0.92057 -0.355469,-0.59245 -0.355469,-1.30339 0,-0.64713 0.291666,-1.19401 0.300782,-0.55599 0.811198,-0.92057 0.382813,-0.28255 1.039063,-0.47396 0.665364,-0.20052 1.421875,-0.20052 1.139323,0 1.996093,0.32813 0.865886,0.32812 1.276042,0.89323 0.410156,0.55599 0.565104,1.49479 l -1.604166,0.21875 q -0.109375,-0.7474 -0.638021,-1.16667 -0.519531,-0.41927 -1.476563,-0.41927 -1.130208,0 -1.613281,0.3737 -0.483073,0.3737 -0.483073,0.875 0,0.31901 0.200521,0.57422 0.200521,0.26432 0.628906,0.4375 0.246094,0.0911 1.449219,0.41927 1.740885,0.46484 2.424479,0.76562 0.692708,0.29167 1.084635,0.85677 0.391928,0.56511 0.391928,1.40365 0,0.82031 -0.483073,1.54948 -0.473959,0.72005 -1.376302,1.12109 -0.902344,0.39193 -2.041667,0.39193 -1.886719,0 -2.880208,-0.78386 -0.984375,-0.78385 -1.257813,-2.32421 z"
         style=""
         id="path2418" />
      <path
         d="m 96.299476,234.87593 0.23698,1.44922 q -0.692709,0.14583 -1.239584,0.14583 -0.893229,0 -1.385416,-0.28255 -0.492188,-0.28255 -0.692709,-0.73828 -0.20052,-0.46484 -0.20052,-1.94141 v -5.56901 h -1.203125 v -1.27604 h 1.203125 v -2.39713 l 1.63151,-0.98438 v 3.38151 h 1.649739 v 1.27604 h -1.649739 v 5.66016 q 0,0.70182 0.08203,0.90234 0.09115,0.20052 0.282552,0.31901 0.200521,0.11849 0.565104,0.11849 0.273438,0 0.720052,-0.0638 z"
         style=""
         id="path2420" />
      <path
         d="m 97.876302,236.34338 v -9.67969 h 1.476562 v 1.46745 q 0.565105,-1.02995 1.039066,-1.35807 0.48307,-0.32813 1.05729,-0.32813 0.82943,0 1.6862,0.52865 l -0.56511,1.52213 q -0.60156,-0.35547 -1.20312,-0.35547 -0.53776,0 -0.96615,0.32813 -0.428384,0.31901 -0.610676,0.89323 -0.273437,0.875 -0.273437,1.91406 v 5.06771 z"
         style=""
         id="path2422" />
      <path
         d="m 110.75521,233.22619 1.69531,0.20964 q -0.40104,1.48567 -1.48568,2.30599 -1.08463,0.82031 -2.77083,0.82031 -2.1237,0 -3.3724,-1.30339 -1.23958,-1.3125 -1.23958,-3.67317 0,-2.44271 1.25781,-3.79167 1.25782,-1.34896 3.26302,-1.34896 1.94141,0 3.17188,1.32162 1.23047,1.32161 1.23047,3.71875 0,0.14583 -0.009,0.4375 h -7.21875 q 0.0911,1.59505 0.90235,2.4427 0.8112,0.84766 2.02343,0.84766 0.90235,0 1.54037,-0.47396 0.63802,-0.47396 1.01172,-1.51302 z m -5.38672,-2.65234 h 5.40495 q -0.10938,-1.22136 -0.61979,-1.83203 -0.78386,-0.94792 -2.03256,-0.94792 -1.1302,0 -1.90494,0.75651 -0.76563,0.75651 -0.84766,2.02344 z"
         style=""
         id="path2424" />
      <path
         d="m 118.10156,234.87593 0.23698,1.44922 q -0.69271,0.14583 -1.23958,0.14583 -0.89323,0 -1.38542,-0.28255 -0.49219,-0.28255 -0.69271,-0.73828 -0.20052,-0.46484 -0.20052,-1.94141 v -5.56901 h -1.20312 v -1.27604 h 1.20312 v -2.39713 l 1.63151,-0.98438 v 3.38151 h 1.64974 v 1.27604 h -1.64974 v 5.66016 q 0,0.70182 0.082,0.90234 0.0911,0.20052 0.28256,0.31901 0.20052,0.11849 0.5651,0.11849 0.27344,0 0.72005,-0.0638 z"
         style=""
         id="path2426" />
      <path
         d="m 126.01302,232.79781 1.61328,0.20963 q -0.26433,1.66797 -1.35808,2.61589 -1.08463,0.9388 -2.67057,0.9388 -1.98698,0 -3.19922,-1.29427 -1.20312,-1.30339 -1.20312,-3.72787 0,-1.5677 0.51953,-2.74349 0.51953,-1.17578 1.57682,-1.75911 1.06641,-0.59245 2.31511,-0.59245 1.57682,0 2.57942,0.80208 1.00261,0.79297 1.28516,2.26042 l -1.59505,0.2461 q -0.22787,-0.97527 -0.8112,-1.46745 -0.57422,-0.49219 -1.39453,-0.49219 -1.23959,0 -2.01433,0.89323 -0.77473,0.88411 -0.77473,2.80729 0,1.95052 0.74739,2.83464 0.7474,0.88411 1.95052,0.88411 0.96615,0 1.61328,-0.59245 0.64714,-0.59245 0.82032,-1.82291 z"
         style=""
         id="path2428" />
      <path
         d="M 129.02995,236.34338 V 222.9814 h 1.64062 v 4.79427 q 1.14844,-1.33073 2.89844,-1.33073 1.07552,0 1.86849,0.42839 0.79297,0.41927 1.13021,1.16666 0.34635,0.7474 0.34635,2.16927 v 6.13412 h -1.64063 v -6.13412 q 0,-1.23046 -0.53776,-1.78645 -0.52864,-0.56511 -1.5039,-0.56511 -0.72917,0 -1.3763,0.38281 -0.63802,0.3737 -0.91146,1.02084 -0.27344,0.64713 -0.27344,1.78646 v 5.29557 z"
         style=""
         id="path2430" />
      <path
         d="m 139.42968,224.86812 v -1.88672 h 1.64063 v 1.88672 z m 0,11.47526 v -9.67969 h 1.64063 v 9.67969 z"
         style=""
         id="path2432" />
      <path
         d="m 143.57682,236.34338 v -9.67969 h 1.47656 v 1.3763 q 1.06641,-1.59505 3.08073,-1.59505 0.875,0 1.60417,0.31901 0.73828,0.3099 1.10286,0.82031 0.36459,0.51042 0.51042,1.21224 0.0911,0.45573 0.0911,1.59506 v 5.95182 h -1.64063 v -5.88802 q 0,-1.00261 -0.19141,-1.49479 -0.1914,-0.50131 -0.68359,-0.79297 -0.48307,-0.30078 -1.13932,-0.30078 -1.04818,0 -1.8138,0.66536 -0.75651,0.66537 -0.75651,2.52474 v 5.28646 z"
         style=""
         id="path2434" />
      <path
         d="m 153.66666,237.14546 1.59506,0.23698 q 0.10026,0.73828 0.55599,1.07552 0.61067,0.45573 1.66796,0.45573 1.13933,0 1.75912,-0.45573 0.61979,-0.45573 0.83854,-1.27604 0.1276,-0.5013 0.11849,-2.10547 -1.07552,1.26693 -2.67969,1.26693 -1.99609,0 -3.08984,-1.44011 -1.09375,-1.4401 -1.09375,-3.45442 0,-1.38542 0.5013,-2.55209 0.5013,-1.17578 1.44922,-1.8138 0.95703,-0.63802 2.24219,-0.63802 1.71354,0 2.82552,1.38542 v -1.16667 h 1.51302 v 8.36719 q 0,2.26042 -0.46484,3.19922 -0.45573,0.94791 -1.45834,1.49479 -0.99349,0.54687 -2.45182,0.54687 -1.73177,0 -2.79818,-0.78385 -1.0664,-0.77474 -1.02995,-2.34245 z m 1.35808,-5.8151 q 0,1.90495 0.75651,2.77995 0.75651,0.875 1.89583,0.875 1.13021,0 1.89583,-0.86589 0.76563,-0.875 0.76563,-2.73437 0,-1.77735 -0.79297,-2.67969 -0.78385,-0.90235 -1.89583,-0.90235 -1.09375,0 -1.85938,0.89323 -0.76562,0.88412 -0.76562,2.63412 z"
         style=""
         id="path2436" />
    </g>
    <g
       aria-label="Angle Bending"
       transform="matrix(0.26458333,0,0,0.26458333,-5.4206017,214.3273)"
       style="font-style:normal;font-variant:normal;font-weight:normal;font-stretch:normal;font-size:18.66666603px;line-height:1.25;font-family:Arial;-inkscape-font-specification:Arial;letter-spacing:0px;word-spacing:0px;fill:#000000;fill-opacity:1;stroke:none"
       id="flowRoot1875">
      <path
         d="m 340.39453,247.45471 5.13151,-13.36198 h 1.90495 l 5.46875,13.36198 h -2.01432 l -1.5586,-4.04688 h -5.58724 l -1.46744,4.04688 z m 3.85547,-5.48698 h 4.52995 l -1.39453,-3.70052 q -0.63802,-1.6862 -0.94792,-2.77084 -0.25521,1.28516 -0.72005,2.55209 z"
         style=""
         id="path2385" />
      <path
         d="m 354.12109,247.45471 v -9.67969 h 1.47657 v 1.3763 q 1.0664,-1.59505 3.08073,-1.59505 0.875,0 1.60416,0.31901 0.73828,0.3099 1.10287,0.82031 0.36458,0.51042 0.51041,1.21224 0.0912,0.45573 0.0912,1.59505 v 5.95183 h -1.64063 v -5.88802 q 0,-1.00261 -0.1914,-1.4948 -0.19141,-0.5013 -0.6836,-0.79296 -0.48307,-0.30079 -1.13932,-0.30079 -1.04818,0 -1.8138,0.66537 -0.75651,0.66536 -0.75651,2.52474 v 5.28646 z"
         style=""
         id="path2387" />
      <path
         d="m 364.21094,248.25679 1.59505,0.23698 q 0.10026,0.73828 0.55599,1.07552 0.61068,0.45573 1.66797,0.45573 1.13932,0 1.75911,-0.45573 0.61979,-0.45573 0.83854,-1.27604 0.12761,-0.5013 0.11849,-2.10547 -1.07552,1.26693 -2.67968,1.26693 -1.9961,0 -3.08985,-1.44011 -1.09375,-1.4401 -1.09375,-3.45442 0,-1.38542 0.5013,-2.55209 0.50131,-1.17578 1.44922,-1.8138 0.95703,-0.63802 2.24219,-0.63802 1.71354,0 2.82552,1.38542 v -1.16667 h 1.51302 v 8.36719 q 0,2.26041 -0.46484,3.19922 -0.45573,0.94791 -1.45833,1.49479 -0.99349,0.54687 -2.45183,0.54687 -1.73177,0 -2.79817,-0.78385 -1.06641,-0.77474 -1.02995,-2.34245 z m 1.35807,-5.8151 q 0,1.90494 0.75651,2.77994 0.75651,0.875 1.89583,0.875 1.13021,0 1.89584,-0.86588 0.76562,-0.875 0.76562,-2.73438 0,-1.77734 -0.79297,-2.67968 -0.78385,-0.90235 -1.89583,-0.90235 -1.09375,0 -1.85937,0.89323 -0.76563,0.88412 -0.76563,2.63412 z"
         style=""
         id="path2389" />
      <path
         d="m 374.86589,247.45471 v -13.36198 h 1.64062 v 13.36198 z"
         style=""
         id="path2391" />
      <path
         d="m 385.6849,244.33752 1.69531,0.20963 q -0.40104,1.48568 -1.48568,2.30599 -1.08463,0.82032 -2.77083,0.82032 -2.1237,0 -3.3724,-1.30339 -1.23958,-1.3125 -1.23958,-3.67318 0,-2.4427 1.25781,-3.79166 1.25781,-1.34896 3.26302,-1.34896 1.94141,0 3.17188,1.32161 1.23047,1.32162 1.23047,3.71875 0,0.14584 -0.009,0.4375 h -7.21875 q 0.0912,1.59506 0.90234,2.44271 0.8112,0.84766 2.02344,0.84766 0.90235,0 1.54037,-0.47396 0.63802,-0.47396 1.01172,-1.51302 z m -5.38672,-2.65234 h 5.40494 q -0.10937,-1.22136 -0.61979,-1.83204 -0.78385,-0.94791 -2.03255,-0.94791 -1.13021,0 -1.90495,0.75651 -0.76562,0.75651 -0.84765,2.02344 z"
         style=""
         id="path2393" />
      <path
         d="m 394.76302,247.45471 v -13.36198 h 5.01302 q 1.53125,0 2.45182,0.41015 0.92969,0.40105 1.44922,1.2487 0.52865,0.83854 0.52865,1.75912 0,0.85677 -0.46485,1.61328 -0.46484,0.75651 -1.40364,1.22135 1.21224,0.35547 1.85937,1.21224 0.65625,0.85677 0.65625,2.02344 0,0.9388 -0.40104,1.75 -0.39193,0.80208 -0.97526,1.23958 -0.58333,0.4375 -1.46745,0.66537 -0.875,0.21875 -2.15104,0.21875 z m 1.76823,-7.7474 h 2.88932 q 1.17578,0 1.6862,-0.15495 0.67448,-0.20052 1.01172,-0.66536 0.34635,-0.46484 0.34635,-1.16667 0,-0.66536 -0.31901,-1.16666 -0.31901,-0.51042 -0.91146,-0.69271 -0.59244,-0.19141 -2.03255,-0.19141 h -2.67057 z m 0,6.17057 h 3.32682 q 0.85677,0 1.20313,-0.0638 0.61067,-0.10937 1.02083,-0.36458 0.41016,-0.25521 0.67448,-0.73828 0.26432,-0.49219 0.26432,-1.13021 0,-0.7474 -0.38281,-1.29427 -0.38281,-0.55599 -1.06641,-0.77474 -0.67448,-0.22787 -1.95052,-0.22787 h -3.08984 z"
         style=""
         id="path2395" />
      <path
         d="m 413.72136,244.33752 1.69531,0.20963 q -0.40104,1.48568 -1.48568,2.30599 -1.08463,0.82032 -2.77083,0.82032 -2.1237,0 -3.3724,-1.30339 -1.23958,-1.3125 -1.23958,-3.67318 0,-2.4427 1.25781,-3.79166 1.25781,-1.34896 3.26302,-1.34896 1.94141,0 3.17188,1.32161 1.23047,1.32162 1.23047,3.71875 0,0.14584 -0.009,0.4375 h -7.21875 q 0.0911,1.59506 0.90235,2.44271 0.81119,0.84766 2.02343,0.84766 0.90235,0 1.54037,-0.47396 0.63802,-0.47396 1.01172,-1.51302 z m -5.38672,-2.65234 h 5.40495 q -0.10938,-1.22136 -0.6198,-1.83204 -0.78385,-0.94791 -2.03255,-0.94791 -1.13021,0 -1.90495,0.75651 -0.76562,0.75651 -0.84765,2.02344 z"
         style=""
         id="path2397" />
      <path
         d="m 417.48568,247.45471 v -9.67969 h 1.47656 v 1.3763 q 1.06641,-1.59505 3.08073,-1.59505 0.875,0 1.60417,0.31901 0.73828,0.3099 1.10286,0.82031 0.36459,0.51042 0.51042,1.21224 0.0911,0.45573 0.0911,1.59505 v 5.95183 h -1.64062 v -5.88802 q 0,-1.00261 -0.19141,-1.4948 -0.1914,-0.5013 -0.68359,-0.79296 -0.48307,-0.30079 -1.13932,-0.30079 -1.04818,0 -1.81381,0.66537 -0.75651,0.66536 -0.75651,2.52474 v 5.28646 z"
         style=""
         id="path2399" />
      <path
         d="m 434.15625,247.45471 v -1.22136 q -0.92057,1.44011 -2.70703,1.44011 -1.15755,0 -2.13281,-0.63802 -0.96615,-0.63802 -1.50391,-1.77735 -0.52864,-1.14843 -0.52864,-2.63411 0,-1.44922 0.48307,-2.625 0.48307,-1.1849 1.44922,-1.8138 0.96614,-0.62891 2.16015,-0.62891 0.875,0 1.5586,0.3737 0.68359,0.36458 1.11198,0.95703 v -4.79427 h 1.63151 v 13.36198 z m -5.1862,-4.83073 q 0,1.85937 0.78386,2.77995 0.78385,0.92057 1.85026,0.92057 1.07552,0 1.82292,-0.875 0.75651,-0.88412 0.75651,-2.6888 0,-1.98698 -0.76563,-2.91667 -0.76562,-0.92969 -1.88672,-0.92969 -1.09375,0 -1.83203,0.89323 -0.72917,0.89323 -0.72917,2.81641 z"
         style=""
         id="path2401" />
      <path
         d="m 438.27604,235.97945 v -1.88672 h 1.64063 v 1.88672 z m 0,11.47526 v -9.67969 h 1.64063 v 9.67969 z"
         style=""
         id="path2403" />
      <path
         d="m 442.42318,247.45471 v -9.67969 h 1.47656 v 1.3763 q 1.06641,-1.59505 3.08073,-1.59505 0.875,0 1.60417,0.31901 0.73828,0.3099 1.10286,0.82031 0.36459,0.51042 0.51042,1.21224 0.0911,0.45573 0.0911,1.59505 v 5.95183 h -1.64062 v -5.88802 q 0,-1.00261 -0.19141,-1.4948 -0.1914,-0.5013 -0.68359,-0.79296 -0.48307,-0.30079 -1.13932,-0.30079 -1.04818,0 -1.81381,0.66537 -0.75651,0.66536 -0.75651,2.52474 v 5.28646 z"
         style=""
         id="path2405" />
      <path
         d="m 452.51302,248.25679 1.59506,0.23698 q 0.10026,0.73828 0.55598,1.07552 0.61068,0.45573 1.66797,0.45573 1.13933,0 1.75912,-0.45573 0.61979,-0.45573 0.83854,-1.27604 0.1276,-0.5013 0.11849,-2.10547 -1.07552,1.26693 -2.67969,1.26693 -1.99609,0 -3.08984,-1.44011 -1.09375,-1.4401 -1.09375,-3.45442 0,-1.38542 0.5013,-2.55209 0.5013,-1.17578 1.44922,-1.8138 0.95703,-0.63802 2.24219,-0.63802 1.71354,0 2.82552,1.38542 v -1.16667 h 1.51302 v 8.36719 q 0,2.26041 -0.46485,3.19922 -0.45572,0.94791 -1.45833,1.49479 -0.99349,0.54687 -2.45182,0.54687 -1.73177,0 -2.79818,-0.78385 -1.0664,-0.77474 -1.02995,-2.34245 z m 1.35808,-5.8151 q 0,1.90494 0.75651,2.77994 0.75651,0.875 1.89583,0.875 1.13021,0 1.89583,-0.86588 0.76563,-0.875 0.76563,-2.73438 0,-1.77734 -0.79297,-2.67968 -0.78385,-0.90235 -1.89583,-0.90235 -1.09375,0 -1.85938,0.89323 -0.76562,0.88412 -0.76562,2.63412 z"
         style=""
         id="path2407" />
    </g>
    <g
       aria-label="Bond rotation (torsion)"
       transform="matrix(0.26458333,0,0,0.26458333,3.6396984,211.92188)"
       style="font-style:normal;font-variant:normal;font-weight:normal;font-stretch:normal;font-size:18.66666603px;line-height:1.25;font-family:Arial;-inkscape-font-specification:Arial;letter-spacing:0px;word-spacing:0px;fill:#000000;fill-opacity:1;stroke:none"
       id="flowRoot1883">
      <path
         d="m 621.60156,262.60705 v -13.36198 h 5.01302 q 1.53125,0 2.45183,0.41016 0.92968,0.40104 1.44921,1.2487 0.52865,0.83854 0.52865,1.75911 0,0.85677 -0.46484,1.61328 -0.46485,0.75651 -1.40365,1.22136 1.21224,0.35546 1.85938,1.21224 0.65625,0.85677 0.65625,2.02343 0,0.9388 -0.40105,1.75 -0.39192,0.80209 -0.97526,1.23959 -0.58333,0.4375 -1.46744,0.66536 -0.875,0.21875 -2.15105,0.21875 z m 1.76823,-7.74739 h 2.88932 q 1.17579,0 1.6862,-0.15495 0.67448,-0.20052 1.01172,-0.66537 0.34636,-0.46484 0.34636,-1.16666 0,-0.66537 -0.31902,-1.16667 -0.31901,-0.51042 -0.91145,-0.69271 -0.59245,-0.19141 -2.03256,-0.19141 h -2.67057 z m 0,6.17057 h 3.32682 q 0.85678,0 1.20313,-0.0638 0.61068,-0.10938 1.02083,-0.36459 0.41016,-0.25521 0.67448,-0.73828 0.26432,-0.49219 0.26432,-1.13021 0,-0.74739 -0.38281,-1.29427 -0.38281,-0.55599 -1.0664,-0.77474 -0.67448,-0.22786 -1.95052,-0.22786 h -3.08985 z"
         style=""
         id="path2342" />
      <path
         d="m 633.32292,257.76721 q 0,-2.6888 1.49479,-3.98308 1.2487,-1.07552 3.04427,-1.07552 1.99609,0 3.26302,1.3125 1.26693,1.30339 1.26693,3.60938 0,1.86849 -0.56511,2.94401 -0.55599,1.0664 -1.63151,1.65885 -1.0664,0.59245 -2.33333,0.59245 -2.03255,0 -3.29037,-1.30338 -1.24869,-1.30339 -1.24869,-3.75521 z m 1.68619,0 q 0,1.85937 0.8112,2.78906 0.8112,0.92057 2.04167,0.92057 1.22135,0 2.03255,-0.92969 0.8112,-0.92968 0.8112,-2.83463 0,-1.79557 -0.82031,-2.71615 -0.8112,-0.92968 -2.02344,-0.92968 -1.23047,0 -2.04167,0.92057 -0.8112,0.92057 -0.8112,2.77995 z"
         style=""
         id="path2344" />
      <path
         d="m 644.32422,262.60705 v -9.67969 h 1.47656 v 1.37631 q 1.06641,-1.59506 3.08073,-1.59506 0.875,0 1.60417,0.31901 0.73828,0.3099 1.10286,0.82032 0.36458,0.51041 0.51042,1.21224 0.0911,0.45573 0.0911,1.59505 v 5.95182 h -1.64062 v -5.88802 q 0,-1.0026 -0.19141,-1.49479 -0.1914,-0.5013 -0.68359,-0.79297 -0.48307,-0.30078 -1.13932,-0.30078 -1.04818,0 -1.81381,0.66536 -0.75651,0.66537 -0.75651,2.52474 v 5.28646 z"
         style=""
         id="path2346" />
      <path
         d="m 660.99479,262.60705 v -1.22135 q -0.92057,1.4401 -2.70703,1.4401 -1.15755,0 -2.13281,-0.63802 -0.96615,-0.63802 -1.50391,-1.77734 -0.52864,-1.14844 -0.52864,-2.63412 0,-1.44922 0.48307,-2.625 0.48307,-1.18489 1.44922,-1.8138 0.96614,-0.62891 2.16015,-0.62891 0.875,0 1.5586,0.3737 0.68359,0.36458 1.11198,0.95703 v -4.79427 h 1.63151 v 13.36198 z m -5.1862,-4.83073 q 0,1.85938 0.78386,2.77995 0.78385,0.92057 1.85026,0.92057 1.07552,0 1.82291,-0.875 0.75652,-0.88411 0.75652,-2.6888 0,-1.98698 -0.76563,-2.91667 -0.76562,-0.92968 -1.88672,-0.92968 -1.09375,0 -1.83203,0.89323 -0.72917,0.89322 -0.72917,2.8164 z"
         style=""
         id="path2348" />
      <path
         d="m 670.26432,262.60705 v -9.67969 h 1.47656 v 1.46745 q 0.56511,-1.02995 1.03907,-1.35807 0.48307,-0.32813 1.05729,-0.32813 0.82943,0 1.6862,0.52865 l -0.56511,1.52213 q -0.60156,-0.35546 -1.20312,-0.35546 -0.53776,0 -0.96615,0.32812 -0.42838,0.31901 -0.61068,0.89323 -0.27343,0.875 -0.27343,1.91406 v 5.06771 z"
         style=""
         id="path2350" />
      <path
         d="m 675.90625,257.76721 q 0,-2.6888 1.49479,-3.98308 1.2487,-1.07552 3.04427,-1.07552 1.99609,0 3.26302,1.3125 1.26693,1.30339 1.26693,3.60938 0,1.86849 -0.56511,2.94401 -0.55598,1.0664 -1.63151,1.65885 -1.0664,0.59245 -2.33333,0.59245 -2.03255,0 -3.29036,-1.30338 -1.2487,-1.30339 -1.2487,-3.75521 z m 1.6862,0 q 0,1.85937 0.81119,2.78906 0.8112,0.92057 2.04167,0.92057 1.22136,0 2.03255,-0.92969 0.8112,-0.92968 0.8112,-2.83463 0,-1.79557 -0.82031,-2.71615 -0.8112,-0.92968 -2.02344,-0.92968 -1.23047,0 -2.04167,0.92057 -0.81119,0.92057 -0.81119,2.77995 z"
         style=""
         id="path2352" />
      <path
         d="m 690.48959,261.1396 0.23697,1.44922 q -0.6927,0.14583 -1.23958,0.14583 -0.89323,0 -1.38542,-0.28255 -0.49218,-0.28255 -0.6927,-0.73828 -0.20052,-0.46484 -0.20052,-1.9414 v -5.56901 h -1.20313 v -1.27605 h 1.20313 v -2.39713 l 1.63151,-0.98438 v 3.38151 h 1.64974 v 1.27605 h -1.64974 v 5.66015 q 0,0.70182 0.082,0.90234 0.0911,0.20053 0.28255,0.31902 0.20052,0.11848 0.5651,0.11848 0.27344,0 0.72006,-0.0638 z"
         style=""
         id="path2354" />
      <path
         d="m 698.40104,261.41304 q -0.91146,0.77474 -1.75912,1.09375 -0.83854,0.31901 -1.80468,0.31901 -1.59506,0 -2.45183,-0.77474 -0.85677,-0.78385 -0.85677,-1.99609 0,-0.71094 0.31901,-1.29427 0.32813,-0.59245 0.84766,-0.94792 0.52865,-0.35547 1.1849,-0.53776 0.48307,-0.1276 1.45833,-0.24609 1.98698,-0.23698 2.92578,-0.56511 0.009,-0.33724 0.009,-0.42838 0,-1.00261 -0.46484,-1.41276 -0.62891,-0.55599 -1.86849,-0.55599 -1.15755,0 -1.71354,0.41015 -0.54688,0.40104 -0.8112,1.43099 l -1.60416,-0.21875 q 0.21875,-1.02995 0.72005,-1.65885 0.5013,-0.63802 1.44922,-0.97526 0.94791,-0.34636 2.19661,-0.34636 1.23958,0 2.01432,0.29167 0.77474,0.29167 1.13933,0.73828 0.36458,0.4375 0.51041,1.11198 0.082,0.41927 0.082,1.51302 v 2.1875 q 0,2.28776 0.10026,2.89844 0.10938,0.60156 0.41928,1.15755 h -1.71355 q -0.2552,-0.51042 -0.32812,-1.19401 z m -0.13672,-3.66406 q -0.89323,0.36458 -2.67969,0.61979 -1.01172,0.14583 -1.43099,0.32812 -0.41927,0.1823 -0.64713,0.53777 -0.22787,0.34635 -0.22787,0.77473 0,0.65625 0.49219,1.09375 0.5013,0.4375 1.45833,0.4375 0.94792,0 1.6862,-0.41015 0.73828,-0.41927 1.08464,-1.13932 0.26432,-0.55599 0.26432,-1.64063 z"
         style=""
         id="path2356" />
      <path
         d="m 706.05729,261.1396 0.23698,1.44922 q -0.69271,0.14583 -1.23959,0.14583 -0.89322,0 -1.38541,-0.28255 -0.49219,-0.28255 -0.69271,-0.73828 -0.20052,-0.46484 -0.20052,-1.9414 v -5.56901 h -1.20313 v -1.27605 h 1.20313 v -2.39713 l 1.63151,-0.98438 v 3.38151 h 1.64974 v 1.27605 h -1.64974 v 5.66015 q 0,0.70182 0.082,0.90234 0.0911,0.20053 0.28255,0.31902 0.20052,0.11848 0.56511,0.11848 0.27343,0 0.72005,-0.0638 z"
         style=""
         id="path2358" />
      <path
         d="m 707.66146,251.13179 v -1.88672 h 1.64062 v 1.88672 z m 0,11.47526 v -9.67969 h 1.64062 v 9.67969 z"
         style=""
         id="path2360" />
      <path
         d="m 711.19792,257.76721 q 0,-2.6888 1.49479,-3.98308 1.2487,-1.07552 3.04427,-1.07552 1.99609,0 3.26302,1.3125 1.26693,1.30339 1.26693,3.60938 0,1.86849 -0.56511,2.94401 -0.55599,1.0664 -1.63151,1.65885 -1.0664,0.59245 -2.33333,0.59245 -2.03255,0 -3.29037,-1.30338 -1.24869,-1.30339 -1.24869,-3.75521 z m 1.68619,0 q 0,1.85937 0.8112,2.78906 0.8112,0.92057 2.04167,0.92057 1.22135,0 2.03255,-0.92969 0.8112,-0.92968 0.8112,-2.83463 0,-1.79557 -0.82031,-2.71615 -0.8112,-0.92968 -2.02344,-0.92968 -1.23047,0 -2.04167,0.92057 -0.8112,0.92057 -0.8112,2.77995 z"
         style=""
         id="path2362" />
      <path
         d="m 722.19922,262.60705 v -9.67969 h 1.47656 v 1.37631 q 1.06641,-1.59506 3.08073,-1.59506 0.875,0 1.60417,0.31901 0.73828,0.3099 1.10286,0.82032 0.36458,0.51041 0.51042,1.21224 0.0911,0.45573 0.0911,1.59505 v 5.95182 h -1.64062 v -5.88802 q 0,-1.0026 -0.19141,-1.49479 -0.1914,-0.5013 -0.68359,-0.79297 -0.48307,-0.30078 -1.13932,-0.30078 -1.04818,0 -1.81381,0.66536 -0.75651,0.66537 -0.75651,2.52474 v 5.28646 z"
         style=""
         id="path2364" />
      <path
         d="m 740.90234,266.53544 q -1.35807,-1.71355 -2.29688,-4.01042 -0.9388,-2.29688 -0.9388,-4.75781 0,-2.16927 0.70182,-4.15625 0.82032,-2.30599 2.53386,-4.59375 h 1.17578 q -1.10286,1.89583 -1.45833,2.70703 -0.55599,1.25781 -0.875,2.625 -0.39193,1.70443 -0.39193,3.42708 0,4.38412 2.72526,8.75912 z"
         style=""
         id="path2366" />
      <path
         d="m 747.58333,261.1396 0.23698,1.44922 q -0.69271,0.14583 -1.23959,0.14583 -0.89323,0 -1.38541,-0.28255 -0.49219,-0.28255 -0.69271,-0.73828 -0.20052,-0.46484 -0.20052,-1.9414 v -5.56901 h -1.20313 v -1.27605 h 1.20313 v -2.39713 l 1.63151,-0.98438 v 3.38151 h 1.64974 v 1.27605 h -1.64974 v 5.66015 q 0,0.70182 0.082,0.90234 0.0911,0.20053 0.28255,0.31902 0.20052,0.11848 0.56511,0.11848 0.27343,0 0.72005,-0.0638 z"
         style=""
         id="path2368" />
      <path
         d="m 748.56771,257.76721 q 0,-2.6888 1.49479,-3.98308 1.2487,-1.07552 3.04427,-1.07552 1.99609,0 3.26302,1.3125 1.26693,1.30339 1.26693,3.60938 0,1.86849 -0.56511,2.94401 -0.55599,1.0664 -1.63151,1.65885 -1.0664,0.59245 -2.33333,0.59245 -2.03255,0 -3.29037,-1.30338 -1.24869,-1.30339 -1.24869,-3.75521 z m 1.68619,0 q 0,1.85937 0.8112,2.78906 0.8112,0.92057 2.04167,0.92057 1.22135,0 2.03255,-0.92969 0.8112,-0.92968 0.8112,-2.83463 0,-1.79557 -0.82031,-2.71615 -0.8112,-0.92968 -2.02344,-0.92968 -1.23047,0 -2.04167,0.92057 -0.8112,0.92057 -0.8112,2.77995 z"
         style=""
         id="path2370" />
      <path
         d="m 759.55079,262.60705 v -9.67969 h 1.47656 v 1.46745 q 0.5651,-1.02995 1.03906,-1.35807 0.48307,-0.32813 1.05729,-0.32813 0.82943,0 1.6862,0.52865 l -0.5651,1.52213 q -0.60157,-0.35546 -1.20313,-0.35546 -0.53776,0 -0.96614,0.32812 -0.42839,0.31901 -0.61068,0.89323 -0.27344,0.875 -0.27344,1.91406 v 5.06771 z"
         style=""
         id="path2372" />
      <path
         d="m 765.14714,259.71773 1.6224,-0.25521 q 0.13672,0.97526 0.75651,1.49479 0.6289,0.51953 1.75,0.51953 1.1302,0 1.67708,-0.45573 0.54687,-0.46484 0.54687,-1.08463 0,-0.55599 -0.48307,-0.875 -0.33724,-0.21875 -1.67708,-0.55599 -1.80469,-0.45573 -2.50651,-0.78386 -0.69271,-0.33724 -1.05729,-0.92057 -0.35547,-0.59245 -0.35547,-1.30338 0,-0.64714 0.29166,-1.19401 0.30079,-0.55599 0.8112,-0.92058 0.38282,-0.28255 1.03906,-0.47396 0.66537,-0.20052 1.42188,-0.20052 1.13932,0 1.99609,0.32813 0.86589,0.32812 1.27605,0.89323 0.41015,0.55599 0.5651,1.49479 l -1.60417,0.21875 q -0.10937,-0.7474 -0.63802,-1.16667 -0.51953,-0.41927 -1.47656,-0.41927 -1.13021,0 -1.61328,0.3737 -0.48307,0.3737 -0.48307,0.875 0,0.31901 0.20052,0.57422 0.20052,0.26432 0.6289,0.4375 0.2461,0.0911 1.44922,0.41927 1.74089,0.46484 2.42448,0.76562 0.69271,0.29167 1.08464,0.85678 0.39192,0.5651 0.39192,1.40364 0,0.82031 -0.48307,1.54948 -0.47396,0.72005 -1.3763,1.12109 -0.90235,0.39193 -2.04167,0.39193 -1.88672,0 -2.88021,-0.78385 -0.98437,-0.78386 -1.25781,-2.32422 z"
         style=""
         id="path2374" />
      <path
         d="m 775.14583,251.13179 v -1.88672 h 1.64063 v 1.88672 z m 0,11.47526 v -9.67969 h 1.64063 v 9.67969 z"
         style=""
         id="path2376" />
      <path
         d="m 778.68229,257.76721 q 0,-2.6888 1.49479,-3.98308 1.2487,-1.07552 3.04427,-1.07552 1.9961,0 3.26302,1.3125 1.26693,1.30339 1.26693,3.60938 0,1.86849 -0.5651,2.94401 -0.55599,1.0664 -1.63151,1.65885 -1.06641,0.59245 -2.33334,0.59245 -2.03255,0 -3.29036,-1.30338 -1.2487,-1.30339 -1.2487,-3.75521 z m 1.6862,0 q 0,1.85937 0.8112,2.78906 0.8112,0.92057 2.04166,0.92057 1.22136,0 2.03256,-0.92969 0.81119,-0.92968 0.81119,-2.83463 0,-1.79557 -0.82031,-2.71615 -0.8112,-0.92968 -2.02344,-0.92968 -1.23046,0 -2.04166,0.92057 -0.8112,0.92057 -0.8112,2.77995 z"
         style=""
         id="path2378" />
      <path
         d="m 789.68359,262.60705 v -9.67969 h 1.47657 v 1.37631 q 1.0664,-1.59506 3.08073,-1.59506 0.875,0 1.60416,0.31901 0.73828,0.3099 1.10287,0.82032 0.36458,0.51041 0.51041,1.21224 0.0911,0.45573 0.0911,1.59505 v 5.95182 h -1.64063 v -5.88802 q 0,-1.0026 -0.1914,-1.49479 -0.19141,-0.5013 -0.6836,-0.79297 -0.48307,-0.30078 -1.13932,-0.30078 -1.04818,0 -1.8138,0.66536 -0.75651,0.66537 -0.75651,2.52474 v 5.28646 z"
         style=""
         id="path2380" />
      <path
         d="m 801.14974,266.53544 h -1.17578 q 2.72526,-4.375 2.72526,-8.75912 0,-1.71354 -0.39193,-3.39974 -0.30989,-1.36719 -0.86588,-2.625 -0.35547,-0.82031 -1.46745,-2.73437 h 1.17578 q 1.71354,2.28776 2.53385,4.59375 0.70183,1.98698 0.70183,4.15625 0,2.46093 -0.94792,4.75781 -0.9388,2.29687 -2.28776,4.01042 z"
         style=""
         id="path2382" />
    </g>
  </g>
</svg>
